G04 #@! TF.FileFunction,Legend,Top*
%FSLAX46Y46*%
G04 Gerber Fmt 4.6, Leading zero omitted, Abs format (unit mm)*
G04 Created by KiCad (PCBNEW 4.0.5) date 02/05/17 19:02:15*
%MOMM*%
%LPD*%
G01*
G04 APERTURE LIST*
%ADD10C,0.100000*%
%ADD11C,0.150000*%
%ADD12C,0.120000*%
%ADD13C,2.000000*%
%ADD14R,2.000000X2.000000*%
%ADD15R,2.100000X2.100000*%
%ADD16O,2.100000X2.100000*%
%ADD17O,2.000000X2.000000*%
%ADD18C,1.924000*%
%ADD19O,2.432000X2.940000*%
G04 APERTURE END LIST*
D10*
D11*
X194310000Y-123190000D02*
X194310000Y-128270000D01*
X196850000Y-125730000D02*
X194310000Y-123190000D01*
X194310000Y-123190000D02*
X196850000Y-125730000D01*
X191770000Y-125730000D02*
X194310000Y-123190000D01*
X194310000Y-123190000D02*
X191770000Y-125730000D01*
D12*
X223111000Y-131473000D02*
X223111000Y-132647000D01*
X221389000Y-131473000D02*
X221389000Y-132647000D01*
X219546863Y-132368600D02*
G75*
G03X214752564Y-132370000I-2396863J-981400D01*
G01*
X219546863Y-134331400D02*
G75*
G02X214752564Y-134330000I-2396863J981400D01*
G01*
X219546863Y-134331400D02*
G75*
G03X219547436Y-132370000I-2396863J981400D01*
G01*
X217150000Y-130800000D02*
X217150000Y-135900000D01*
X217190000Y-130800000D02*
X217190000Y-135900000D01*
X217230000Y-130801000D02*
X217230000Y-135899000D01*
X217270000Y-130802000D02*
X217270000Y-135898000D01*
X217310000Y-130804000D02*
X217310000Y-135896000D01*
X217350000Y-130807000D02*
X217350000Y-135893000D01*
X217390000Y-130811000D02*
X217390000Y-135889000D01*
X217430000Y-130815000D02*
X217430000Y-132370000D01*
X217430000Y-134330000D02*
X217430000Y-135885000D01*
X217470000Y-130819000D02*
X217470000Y-132370000D01*
X217470000Y-134330000D02*
X217470000Y-135881000D01*
X217510000Y-130825000D02*
X217510000Y-132370000D01*
X217510000Y-134330000D02*
X217510000Y-135875000D01*
X217550000Y-130831000D02*
X217550000Y-132370000D01*
X217550000Y-134330000D02*
X217550000Y-135869000D01*
X217590000Y-130837000D02*
X217590000Y-132370000D01*
X217590000Y-134330000D02*
X217590000Y-135863000D01*
X217630000Y-130844000D02*
X217630000Y-132370000D01*
X217630000Y-134330000D02*
X217630000Y-135856000D01*
X217670000Y-130852000D02*
X217670000Y-132370000D01*
X217670000Y-134330000D02*
X217670000Y-135848000D01*
X217710000Y-130861000D02*
X217710000Y-132370000D01*
X217710000Y-134330000D02*
X217710000Y-135839000D01*
X217750000Y-130870000D02*
X217750000Y-132370000D01*
X217750000Y-134330000D02*
X217750000Y-135830000D01*
X217790000Y-130880000D02*
X217790000Y-132370000D01*
X217790000Y-134330000D02*
X217790000Y-135820000D01*
X217830000Y-130890000D02*
X217830000Y-132370000D01*
X217830000Y-134330000D02*
X217830000Y-135810000D01*
X217871000Y-130902000D02*
X217871000Y-132370000D01*
X217871000Y-134330000D02*
X217871000Y-135798000D01*
X217911000Y-130914000D02*
X217911000Y-132370000D01*
X217911000Y-134330000D02*
X217911000Y-135786000D01*
X217951000Y-130926000D02*
X217951000Y-132370000D01*
X217951000Y-134330000D02*
X217951000Y-135774000D01*
X217991000Y-130940000D02*
X217991000Y-132370000D01*
X217991000Y-134330000D02*
X217991000Y-135760000D01*
X218031000Y-130954000D02*
X218031000Y-132370000D01*
X218031000Y-134330000D02*
X218031000Y-135746000D01*
X218071000Y-130968000D02*
X218071000Y-132370000D01*
X218071000Y-134330000D02*
X218071000Y-135732000D01*
X218111000Y-130984000D02*
X218111000Y-132370000D01*
X218111000Y-134330000D02*
X218111000Y-135716000D01*
X218151000Y-131000000D02*
X218151000Y-132370000D01*
X218151000Y-134330000D02*
X218151000Y-135700000D01*
X218191000Y-131017000D02*
X218191000Y-132370000D01*
X218191000Y-134330000D02*
X218191000Y-135683000D01*
X218231000Y-131035000D02*
X218231000Y-132370000D01*
X218231000Y-134330000D02*
X218231000Y-135665000D01*
X218271000Y-131054000D02*
X218271000Y-132370000D01*
X218271000Y-134330000D02*
X218271000Y-135646000D01*
X218311000Y-131074000D02*
X218311000Y-132370000D01*
X218311000Y-134330000D02*
X218311000Y-135626000D01*
X218351000Y-131094000D02*
X218351000Y-132370000D01*
X218351000Y-134330000D02*
X218351000Y-135606000D01*
X218391000Y-131116000D02*
X218391000Y-132370000D01*
X218391000Y-134330000D02*
X218391000Y-135584000D01*
X218431000Y-131138000D02*
X218431000Y-132370000D01*
X218431000Y-134330000D02*
X218431000Y-135562000D01*
X218471000Y-131161000D02*
X218471000Y-132370000D01*
X218471000Y-134330000D02*
X218471000Y-135539000D01*
X218511000Y-131185000D02*
X218511000Y-132370000D01*
X218511000Y-134330000D02*
X218511000Y-135515000D01*
X218551000Y-131210000D02*
X218551000Y-132370000D01*
X218551000Y-134330000D02*
X218551000Y-135490000D01*
X218591000Y-131237000D02*
X218591000Y-132370000D01*
X218591000Y-134330000D02*
X218591000Y-135463000D01*
X218631000Y-131264000D02*
X218631000Y-132370000D01*
X218631000Y-134330000D02*
X218631000Y-135436000D01*
X218671000Y-131292000D02*
X218671000Y-132370000D01*
X218671000Y-134330000D02*
X218671000Y-135408000D01*
X218711000Y-131322000D02*
X218711000Y-132370000D01*
X218711000Y-134330000D02*
X218711000Y-135378000D01*
X218751000Y-131353000D02*
X218751000Y-132370000D01*
X218751000Y-134330000D02*
X218751000Y-135347000D01*
X218791000Y-131385000D02*
X218791000Y-132370000D01*
X218791000Y-134330000D02*
X218791000Y-135315000D01*
X218831000Y-131418000D02*
X218831000Y-132370000D01*
X218831000Y-134330000D02*
X218831000Y-135282000D01*
X218871000Y-131453000D02*
X218871000Y-132370000D01*
X218871000Y-134330000D02*
X218871000Y-135247000D01*
X218911000Y-131489000D02*
X218911000Y-132370000D01*
X218911000Y-134330000D02*
X218911000Y-135211000D01*
X218951000Y-131527000D02*
X218951000Y-132370000D01*
X218951000Y-134330000D02*
X218951000Y-135173000D01*
X218991000Y-131567000D02*
X218991000Y-132370000D01*
X218991000Y-134330000D02*
X218991000Y-135133000D01*
X219031000Y-131608000D02*
X219031000Y-132370000D01*
X219031000Y-134330000D02*
X219031000Y-135092000D01*
X219071000Y-131651000D02*
X219071000Y-132370000D01*
X219071000Y-134330000D02*
X219071000Y-135049000D01*
X219111000Y-131696000D02*
X219111000Y-132370000D01*
X219111000Y-134330000D02*
X219111000Y-135004000D01*
X219151000Y-131744000D02*
X219151000Y-132370000D01*
X219151000Y-134330000D02*
X219151000Y-134956000D01*
X219191000Y-131794000D02*
X219191000Y-132370000D01*
X219191000Y-134330000D02*
X219191000Y-134906000D01*
X219231000Y-131846000D02*
X219231000Y-132370000D01*
X219231000Y-134330000D02*
X219231000Y-134854000D01*
X219271000Y-131902000D02*
X219271000Y-132370000D01*
X219271000Y-134330000D02*
X219271000Y-134798000D01*
X219311000Y-131960000D02*
X219311000Y-132370000D01*
X219311000Y-134330000D02*
X219311000Y-134740000D01*
X219351000Y-132023000D02*
X219351000Y-132370000D01*
X219351000Y-134330000D02*
X219351000Y-134677000D01*
X219391000Y-132089000D02*
X219391000Y-134611000D01*
X219431000Y-132161000D02*
X219431000Y-134539000D01*
X219471000Y-132238000D02*
X219471000Y-134462000D01*
X219511000Y-132322000D02*
X219511000Y-134378000D01*
X219551000Y-132416000D02*
X219551000Y-134284000D01*
X219591000Y-132521000D02*
X219591000Y-134179000D01*
X219631000Y-132643000D02*
X219631000Y-134057000D01*
X219671000Y-132791000D02*
X219671000Y-133909000D01*
X219711000Y-132996000D02*
X219711000Y-133704000D01*
X213700000Y-133350000D02*
X214900000Y-133350000D01*
X214300000Y-132700000D02*
X214300000Y-134000000D01*
X189143333Y-150625000D02*
X189143333Y-122625000D01*
X189143333Y-122625000D02*
X186483333Y-122625000D01*
X186483333Y-122625000D02*
X186483333Y-150625000D01*
X186483333Y-150625000D02*
X189143333Y-150625000D01*
X189143333Y-151895000D02*
X189143333Y-153225000D01*
X189143333Y-153225000D02*
X187813333Y-153225000D01*
X209550000Y-147260000D02*
X217230000Y-147260000D01*
X217230000Y-147260000D02*
X217230000Y-152460000D01*
X217230000Y-152460000D02*
X206950000Y-152460000D01*
X206950000Y-152460000D02*
X206950000Y-149860000D01*
X206950000Y-149860000D02*
X209550000Y-149860000D01*
X209550000Y-149860000D02*
X209550000Y-147260000D01*
X208280000Y-147260000D02*
X206950000Y-147260000D01*
X206950000Y-147260000D02*
X206950000Y-148530000D01*
X208220000Y-127000000D02*
X208220000Y-132140000D01*
X208220000Y-132140000D02*
X210880000Y-132140000D01*
X210880000Y-132140000D02*
X210880000Y-127000000D01*
X210880000Y-127000000D02*
X208220000Y-127000000D01*
X208220000Y-125730000D02*
X208220000Y-124400000D01*
X208220000Y-124400000D02*
X209550000Y-124400000D01*
X204383333Y-150625000D02*
X204383333Y-122625000D01*
X204383333Y-122625000D02*
X201723333Y-122625000D01*
X201723333Y-122625000D02*
X201723333Y-150625000D01*
X201723333Y-150625000D02*
X204383333Y-150625000D01*
X204383333Y-151895000D02*
X204383333Y-153225000D01*
X204383333Y-153225000D02*
X203053333Y-153225000D01*
X208880000Y-137120000D02*
X208880000Y-139740000D01*
X208880000Y-139740000D02*
X215300000Y-139740000D01*
X215300000Y-139740000D02*
X215300000Y-137120000D01*
X215300000Y-137120000D02*
X208880000Y-137120000D01*
X207990000Y-138430000D02*
X208880000Y-138430000D01*
X216190000Y-138430000D02*
X215300000Y-138430000D01*
D11*
X220218000Y-145796000D02*
X221488000Y-145796000D01*
X220967300Y-145008600D02*
X220713300Y-145046700D01*
X220713300Y-145046700D02*
X220433900Y-145224500D01*
X220433900Y-145224500D02*
X220218000Y-145542000D01*
X220218000Y-145542000D02*
X220205300Y-145986500D01*
X220205300Y-145986500D02*
X220408500Y-146342100D01*
X220408500Y-146342100D02*
X220700600Y-146519900D01*
X220700600Y-146519900D02*
X221018100Y-146570700D01*
X221018100Y-146570700D02*
X221424500Y-146469100D01*
X221424500Y-146469100D02*
X221678500Y-146126200D01*
X221678500Y-146126200D02*
X221767400Y-145948400D01*
X224028000Y-137414000D02*
X224028000Y-147066000D01*
X220980000Y-147066000D02*
X219710000Y-147066000D01*
X219710000Y-147066000D02*
X219710000Y-137414000D01*
X219710000Y-137414000D02*
X224790000Y-137414000D01*
X224790000Y-147066000D02*
X222250000Y-147066000D01*
X222250000Y-147066000D02*
X220980000Y-147066000D01*
X224536000Y-125349000D02*
X224536000Y-128778000D01*
X214884000Y-125349000D02*
X214884000Y-128778000D01*
X225044000Y-124206000D02*
X214376000Y-124206000D01*
X221488000Y-125222000D02*
X221488000Y-123952000D01*
X217932000Y-125222000D02*
X217932000Y-123952000D01*
X214376000Y-125349000D02*
X225044000Y-125349000D01*
X225044000Y-128778000D02*
X214376000Y-128778000D01*
X214376000Y-123952000D02*
X214376000Y-128778000D01*
X225044000Y-123952000D02*
X225044000Y-128778000D01*
X225044000Y-123952000D02*
X214376000Y-123952000D01*
D12*
X220920000Y-151130000D02*
X220920000Y-153730000D01*
X220920000Y-153730000D02*
X223580000Y-153730000D01*
X223580000Y-153730000D02*
X223580000Y-151130000D01*
X223580000Y-151130000D02*
X220920000Y-151130000D01*
X220920000Y-149860000D02*
X220920000Y-148530000D01*
X220920000Y-148530000D02*
X222250000Y-148530000D01*
D11*
X224623334Y-132437143D02*
X224575715Y-132484762D01*
X224432858Y-132532381D01*
X224337620Y-132532381D01*
X224194762Y-132484762D01*
X224099524Y-132389524D01*
X224051905Y-132294286D01*
X224004286Y-132103810D01*
X224004286Y-131960952D01*
X224051905Y-131770476D01*
X224099524Y-131675238D01*
X224194762Y-131580000D01*
X224337620Y-131532381D01*
X224432858Y-131532381D01*
X224575715Y-131580000D01*
X224623334Y-131627619D01*
X225575715Y-132532381D02*
X225004286Y-132532381D01*
X225290000Y-132532381D02*
X225290000Y-131532381D01*
X225194762Y-131675238D01*
X225099524Y-131770476D01*
X225004286Y-131818095D01*
X216983334Y-130147143D02*
X216935715Y-130194762D01*
X216792858Y-130242381D01*
X216697620Y-130242381D01*
X216554762Y-130194762D01*
X216459524Y-130099524D01*
X216411905Y-130004286D01*
X216364286Y-129813810D01*
X216364286Y-129670952D01*
X216411905Y-129480476D01*
X216459524Y-129385238D01*
X216554762Y-129290000D01*
X216697620Y-129242381D01*
X216792858Y-129242381D01*
X216935715Y-129290000D01*
X216983334Y-129337619D01*
X217364286Y-129337619D02*
X217411905Y-129290000D01*
X217507143Y-129242381D01*
X217745239Y-129242381D01*
X217840477Y-129290000D01*
X217888096Y-129337619D01*
X217935715Y-129432857D01*
X217935715Y-129528095D01*
X217888096Y-129670952D01*
X217316667Y-130242381D01*
X217935715Y-130242381D01*
X187075238Y-154677381D02*
X187075238Y-153677381D01*
X187456191Y-153677381D01*
X187551429Y-153725000D01*
X187599048Y-153772619D01*
X187646667Y-153867857D01*
X187646667Y-154010714D01*
X187599048Y-154105952D01*
X187551429Y-154153571D01*
X187456191Y-154201190D01*
X187075238Y-154201190D01*
X188599048Y-154677381D02*
X188027619Y-154677381D01*
X188313333Y-154677381D02*
X188313333Y-153677381D01*
X188218095Y-153820238D01*
X188122857Y-153915476D01*
X188027619Y-153963095D01*
X205211905Y-150312381D02*
X205211905Y-149312381D01*
X205592858Y-149312381D01*
X205688096Y-149360000D01*
X205735715Y-149407619D01*
X205783334Y-149502857D01*
X205783334Y-149645714D01*
X205735715Y-149740952D01*
X205688096Y-149788571D01*
X205592858Y-149836190D01*
X205211905Y-149836190D01*
X206164286Y-149407619D02*
X206211905Y-149360000D01*
X206307143Y-149312381D01*
X206545239Y-149312381D01*
X206640477Y-149360000D01*
X206688096Y-149407619D01*
X206735715Y-149502857D01*
X206735715Y-149598095D01*
X206688096Y-149740952D01*
X206116667Y-150312381D01*
X206735715Y-150312381D01*
X208811905Y-123852381D02*
X208811905Y-122852381D01*
X209192858Y-122852381D01*
X209288096Y-122900000D01*
X209335715Y-122947619D01*
X209383334Y-123042857D01*
X209383334Y-123185714D01*
X209335715Y-123280952D01*
X209288096Y-123328571D01*
X209192858Y-123376190D01*
X208811905Y-123376190D01*
X209716667Y-122852381D02*
X210335715Y-122852381D01*
X210002381Y-123233333D01*
X210145239Y-123233333D01*
X210240477Y-123280952D01*
X210288096Y-123328571D01*
X210335715Y-123423810D01*
X210335715Y-123661905D01*
X210288096Y-123757143D01*
X210240477Y-123804762D01*
X210145239Y-123852381D01*
X209859524Y-123852381D01*
X209764286Y-123804762D01*
X209716667Y-123757143D01*
X202315238Y-154677381D02*
X202315238Y-153677381D01*
X202696191Y-153677381D01*
X202791429Y-153725000D01*
X202839048Y-153772619D01*
X202886667Y-153867857D01*
X202886667Y-154010714D01*
X202839048Y-154105952D01*
X202791429Y-154153571D01*
X202696191Y-154201190D01*
X202315238Y-154201190D01*
X203743810Y-154010714D02*
X203743810Y-154677381D01*
X203505714Y-153629762D02*
X203267619Y-154344048D01*
X203886667Y-154344048D01*
X211923334Y-136572381D02*
X211590000Y-136096190D01*
X211351905Y-136572381D02*
X211351905Y-135572381D01*
X211732858Y-135572381D01*
X211828096Y-135620000D01*
X211875715Y-135667619D01*
X211923334Y-135762857D01*
X211923334Y-135905714D01*
X211875715Y-136000952D01*
X211828096Y-136048571D01*
X211732858Y-136096190D01*
X211351905Y-136096190D01*
X212875715Y-136572381D02*
X212304286Y-136572381D01*
X212590000Y-136572381D02*
X212590000Y-135572381D01*
X212494762Y-135715238D01*
X212399524Y-135810476D01*
X212304286Y-135858095D01*
X217844762Y-141422381D02*
X217511428Y-140946190D01*
X217273333Y-141422381D02*
X217273333Y-140422381D01*
X217654286Y-140422381D01*
X217749524Y-140470000D01*
X217797143Y-140517619D01*
X217844762Y-140612857D01*
X217844762Y-140755714D01*
X217797143Y-140850952D01*
X217749524Y-140898571D01*
X217654286Y-140946190D01*
X217273333Y-140946190D01*
X218130476Y-140422381D02*
X218463809Y-141422381D01*
X218797143Y-140422381D01*
X219654286Y-141422381D02*
X219082857Y-141422381D01*
X219368571Y-141422381D02*
X219368571Y-140422381D01*
X219273333Y-140565238D01*
X219178095Y-140660476D01*
X219082857Y-140708095D01*
X218948095Y-122134381D02*
X218948095Y-122943905D01*
X218995714Y-123039143D01*
X219043333Y-123086762D01*
X219138571Y-123134381D01*
X219329048Y-123134381D01*
X219424286Y-123086762D01*
X219471905Y-123039143D01*
X219519524Y-122943905D01*
X219519524Y-122134381D01*
X220519524Y-123134381D02*
X219948095Y-123134381D01*
X220233809Y-123134381D02*
X220233809Y-122134381D01*
X220138571Y-122277238D01*
X220043333Y-122372476D01*
X219948095Y-122420095D01*
X218971905Y-151582381D02*
X218971905Y-150582381D01*
X219352858Y-150582381D01*
X219448096Y-150630000D01*
X219495715Y-150677619D01*
X219543334Y-150772857D01*
X219543334Y-150915714D01*
X219495715Y-151010952D01*
X219448096Y-151058571D01*
X219352858Y-151106190D01*
X218971905Y-151106190D01*
X220448096Y-150582381D02*
X219971905Y-150582381D01*
X219924286Y-151058571D01*
X219971905Y-151010952D01*
X220067143Y-150963333D01*
X220305239Y-150963333D01*
X220400477Y-151010952D01*
X220448096Y-151058571D01*
X220495715Y-151153810D01*
X220495715Y-151391905D01*
X220448096Y-151487143D01*
X220400477Y-151534762D01*
X220305239Y-151582381D01*
X220067143Y-151582381D01*
X219971905Y-151534762D01*
X219924286Y-151487143D01*
%LPC*%
D13*
X222250000Y-130810000D03*
X222250000Y-133310000D03*
D14*
X215900000Y-133350000D03*
D13*
X218400000Y-133350000D03*
D15*
X187813333Y-151895000D03*
D16*
X187813333Y-149355000D03*
X187813333Y-146815000D03*
X187813333Y-144275000D03*
X187813333Y-141735000D03*
X187813333Y-139195000D03*
X187813333Y-136655000D03*
X187813333Y-134115000D03*
X187813333Y-131575000D03*
X187813333Y-129035000D03*
X187813333Y-126495000D03*
X187813333Y-123955000D03*
D15*
X208280000Y-148590000D03*
D16*
X208280000Y-151130000D03*
X210820000Y-148590000D03*
X210820000Y-151130000D03*
X213360000Y-148590000D03*
X213360000Y-151130000D03*
X215900000Y-148590000D03*
X215900000Y-151130000D03*
D15*
X209550000Y-125730000D03*
D16*
X209550000Y-128270000D03*
X209550000Y-130810000D03*
D15*
X203053333Y-151895000D03*
D16*
X203053333Y-149355000D03*
X203053333Y-146815000D03*
X203053333Y-144275000D03*
X203053333Y-141735000D03*
X203053333Y-139195000D03*
X203053333Y-136655000D03*
X203053333Y-134115000D03*
X203053333Y-131575000D03*
X203053333Y-129035000D03*
X203053333Y-126495000D03*
X203053333Y-123955000D03*
D13*
X207010000Y-138430000D03*
D17*
X217170000Y-138430000D03*
D18*
X222250000Y-142240000D03*
X222250000Y-139700000D03*
X222250000Y-144780000D03*
D19*
X219710000Y-127000000D03*
X222250000Y-127000000D03*
X217170000Y-127000000D03*
D15*
X222250000Y-149860000D03*
D16*
X222250000Y-152400000D03*
M02*
