M48
;DRILL file {KiCad 4.0.5} date 02/05/17 19:02:29
;FORMAT={-:-/ absolute / inch / decimal}
FMAT,2
INCH,TZ
T1C0.016
T2C0.031
T3C0.032
T4C0.039
T5C0.045
%
G90
G05
M72
T1
X7.3942Y-5.4801
X7.5Y-5.35
X7.65Y-5.3
X7.65Y-5.6
X7.75Y-5.25
X7.75Y-5.95
X7.8Y-4.95
X7.8Y-5.35
X7.9Y-5.05
X7.9Y-5.05
X7.9Y-5.2
X8.1Y-5.95
X8.1Y-6.05
X8.15Y-5.45
X8.2036Y-5.2893
X8.3Y-5.25
X8.3Y-6.
X8.4Y-5.7
X8.4Y-6.05
X8.5Y-5.1
X8.5Y-5.75
X8.55Y-5.6
X8.6Y-5.7
X8.65Y-5.1
X8.85Y-5.35
T2
X8.15Y-5.45
X8.5Y-5.25
X8.55Y-5.45
X8.5984Y-5.25
X8.75Y-5.15
X8.75Y-5.2484
T3
X8.75Y-5.5
X8.75Y-5.6
X8.75Y-5.7
T4
X7.3942Y-4.8801
X7.3942Y-4.9801
X7.3942Y-5.0801
X7.3942Y-5.1801
X7.3942Y-5.2801
X7.3942Y-5.3801
X7.3942Y-5.4801
X7.3942Y-5.5801
X7.3942Y-5.6801
X7.3942Y-5.7801
X7.3942Y-5.8801
X7.3942Y-5.9801
X7.9942Y-4.8801
X7.9942Y-4.9801
X7.9942Y-5.0801
X7.9942Y-5.1801
X7.9942Y-5.2801
X7.9942Y-5.3801
X7.9942Y-5.4801
X7.9942Y-5.5801
X7.9942Y-5.6801
X7.9942Y-5.7801
X7.9942Y-5.8801
X7.9942Y-5.9801
X8.2Y-5.85
X8.2Y-5.95
X8.25Y-4.95
X8.25Y-5.05
X8.25Y-5.15
X8.3Y-5.85
X8.3Y-5.95
X8.4Y-5.85
X8.4Y-5.95
X8.5Y-5.85
X8.5Y-5.95
X8.75Y-5.9
X8.75Y-6.
T5
X8.55Y-5.
X8.65Y-5.
X8.75Y-5.
T0
M30
